<?xml version="1.0" encoding="UTF-8" standalone="no"?>
<!DOCTYPE svg PUBLIC "-//W3C//DTD SVG 1.1//EN" "http://www.w3.org/Graphics/SVG/1.1/DTD/svg11.dtd">
<svg width="100%" height="100%" viewBox="0 0 352 124" version="1.1" xmlns="http://www.w3.org/2000/svg" xmlns:xlink="http://www.w3.org/1999/xlink" xml:space="preserve" xmlns:serif="http://www.serif.com/" style="fill-rule:evenodd;clip-rule:evenodd;stroke-linejoin:round;stroke-miterlimit:2;">
    <g transform="matrix(0.198706,0,0,0.198706,-733.244,-368.579)">
        <circle cx="4002.63" cy="2166.91" r="310.702" style="fill:rgb(255,222,3);"/>
    </g>
    <g transform="matrix(0.183057,0,0,0.183057,-751.783,-376.195)">
        <path d="M4350.59,2582.35C4350.59,2582.35 4261.19,2534.71 4223.27,2514.51C4213.34,2509.22 4207.99,2498.11 4210.04,2487.05C4219.06,2438.5 4242.61,2311.6 4242.61,2311.6C4242.61,2311.6 4258.39,2208.68 4264.27,2170.31C4264.65,2167.82 4266.46,2165.79 4268.89,2165.13C4271.32,2164.47 4273.91,2165.31 4275.49,2167.26C4304.19,2202.59 4391.28,2309.81 4391.28,2309.81L4508.31,2309.7C4508.31,2309.7 4594.8,2202.83 4623.64,2167.19C4625.24,2165.2 4627.88,2164.35 4630.35,2165.03C4632.82,2165.7 4634.65,2167.77 4635.03,2170.3C4640.8,2208.97 4656.11,2311.6 4656.11,2311.6C4656.11,2311.6 4675.56,2439.65 4682.85,2487.7C4684.48,2498.45 4679.17,2509.06 4669.6,2514.2C4632.87,2533.93 4545.54,2580.84 4545.54,2580.84C4545.54,2580.84 4481.76,2638.28 4458.45,2659.27C4453.64,2663.61 4446.36,2663.71 4441.43,2659.52C4417.26,2638.99 4350.59,2582.35 4350.59,2582.35ZM4607.84,2389.73C4607.84,2389.73 4579.82,2432.13 4566.74,2451.91C4563.02,2457.53 4555.62,2459.34 4549.73,2456.07C4535.41,2448.13 4511.41,2434.81 4511.41,2434.81L4607.84,2389.73ZM4289.81,2389.73C4289.81,2389.73 4318.24,2432.73 4331.19,2452.33C4334.75,2457.71 4341.85,2459.45 4347.49,2456.32C4361.75,2448.4 4386.25,2434.81 4386.25,2434.81L4289.81,2389.73ZM4277.52,2223.77C4277.87,2221.27 4279.66,2219.22 4282.08,2218.53C4284.51,2217.85 4287.11,2218.67 4288.71,2220.62C4302.38,2237.36 4328.3,2269.08 4345.66,2290.33C4348.87,2294.25 4349.52,2299.67 4347.35,2304.25C4345.18,2308.83 4340.57,2311.74 4335.5,2311.74L4265.48,2311.74C4265.48,2311.74 4273.66,2251.98 4277.52,2223.77ZM4621.09,2224.45C4620.79,2221.99 4619.04,2219.93 4616.66,2219.23C4614.27,2218.53 4611.69,2219.32 4610.1,2221.23C4596.21,2237.93 4569.67,2269.82 4552.13,2290.9C4549,2294.66 4548.33,2299.9 4550.4,2304.33C4552.48,2308.76 4556.93,2311.59 4561.83,2311.59L4631.89,2311.59C4631.89,2311.59 4624.56,2252.41 4621.09,2224.45Z"/>
    </g>
    <g transform="matrix(0.952608,0,0,0.952608,4.50957,2.52919)">
        <path d="M223.323,62.879L223.323,79.787C223.323,87.498 229.425,93.758 236.942,93.758C242.46,93.758 247.217,90.384 249.355,85.538C249.74,84.667 250.062,84.116 250.963,83.427C251.729,82.842 253.332,82.794 253.332,82.794L258.065,82.794C258.065,82.794 259.518,82.737 260.178,83.447C260.693,84.001 260.751,84.721 260.527,85.655C257.919,96.529 248.342,104.604 236.942,104.604C223.538,104.604 212.655,93.44 212.655,79.69L212.655,54.935C212.655,41.184 223.538,30.02 236.942,30.02C249.386,30.02 259.657,39.642 261.064,52.024C261.213,53.978 261.064,57.674 261.064,57.674C261.064,57.674 261.09,60.256 259.928,61.422C258.258,63.098 255.809,62.879 255.809,62.879L223.323,62.879ZM250.284,52.023C249.013,45.659 243.519,40.866 236.942,40.866C230.365,40.866 224.87,45.659 223.6,52.023L250.284,52.023ZM226.903,31.27C226.938,25.403 231.624,19.285 237.323,19.163C243.022,19.285 247.574,25.729 247.61,31.596L243.007,29.918C242.956,26.697 240.446,24.084 237.323,23.965C234.2,24.084 231.693,26.697 231.642,29.918L226.903,31.27Z" style="fill:rgb(174,174,174);"/>
    </g>
    <g transform="matrix(0.952608,0,0,0.952608,4.50957,2.52919)">
        <path d="M307.725,39.227C312.062,33.743 318.632,30.191 326.009,30.034C339.126,30.314 349.698,41.324 349.698,54.846L349.698,97.822C349.698,97.822 349.818,104.657 344.304,104.609C338.709,104.56 339.042,97.814 339.042,97.814L339.042,54.919C339.042,47.43 333.244,41.319 326.009,41.042C319.31,41.298 313.85,46.557 313.078,53.28C313.109,53.798 313.125,54.32 313.125,54.846L313.125,97.822C313.125,97.822 313.245,104.638 307.755,104.609L307.722,104.609C302.208,104.658 302.328,97.823 302.328,97.823L302.328,54.847C302.328,54.321 302.344,53.799 302.376,53.281C301.603,46.557 296.136,41.298 289.437,41.042C282.202,41.319 276.411,47.431 276.411,54.92L276.411,97.814C276.411,97.814 276.744,104.56 271.149,104.609C265.636,104.658 265.755,97.823 265.755,97.823L265.755,54.847C265.755,41.324 276.32,30.313 289.437,30.034C296.814,30.191 303.386,33.743 307.725,39.227Z" style="fill:rgb(174,174,174);"/>
    </g>
    <g transform="matrix(0.952608,0,0,0.952608,4.50957,2.52919)">
        <path d="M143.986,69.336C143.364,68.827 143.422,68.323 143.422,68.323L143.41,29.772C143.41,23.855 148.093,19.05 153.862,19.05L174.822,19.117C191.982,19.159 205.901,33.463 205.901,51.077L205.901,72.65C205.901,90.263 191.982,104.568 174.822,104.61L174.822,104.609L153.862,104.583C148.093,104.583 143.41,99.778 143.41,93.861L143.419,78.301C143.419,78.301 143.391,77.657 143.822,77.144C144.258,76.626 144.779,76.529 144.779,76.529L152.482,74.243C152.482,74.243 153.131,74.009 153.581,74.346C154.078,74.719 154.009,75.297 154.009,75.297L153.997,85.655C153.997,90.057 157.093,93.631 160.907,93.631L174.766,93.651C186.111,93.62 195.314,82.979 195.314,69.878L195.314,53.832C195.314,40.73 186.111,30.09 174.766,30.059L160.907,30.009C157.093,30.009 153.997,33.583 153.997,37.984L153.97,61.09L167.191,59.029L168.537,66.887L189.305,57.86L165.941,73.396L164.285,64.617L145.186,69.452C145.186,69.452 144.511,69.765 143.986,69.336ZM163.348,0.44C163.348,0.44 186.445,20.229 183.775,18.841C180.124,16.943 167.531,17.321 167.531,17.321L163.348,0.44ZM148.327,0.526L166.759,17.321L153.271,17.323L148.327,0.526Z" style="fill:rgb(174,174,174);"/>
    </g>
    <g transform="matrix(0.870983,0,0,0.893501,-26.6476,-126.479)">
        <path d="M191.539,188.536C191.818,189.576 191.967,190.67 191.967,191.798C191.967,198.742 186.329,204.38 179.385,204.38C172.44,204.38 166.802,198.742 166.802,191.798C166.802,184.853 172.44,179.215 179.385,179.215C182.718,179.215 185.75,180.514 188.002,182.633L208.767,182.633C211.019,180.514 214.051,179.215 217.385,179.215C224.329,179.215 229.967,184.853 229.967,191.798C229.967,198.742 224.329,204.38 217.385,204.38C210.44,204.38 204.802,198.742 204.802,191.798C204.802,190.67 204.951,189.576 205.23,188.536L191.539,188.536ZM217.385,184.807C221.243,184.807 224.375,187.94 224.375,191.798C224.375,195.656 221.243,198.788 217.385,198.788C213.526,198.788 210.394,195.656 210.394,191.798C210.394,187.94 213.526,184.807 217.385,184.807ZM179.385,184.807C183.243,184.807 186.375,187.94 186.375,191.798C186.375,195.656 183.243,198.788 179.385,198.788C175.526,198.788 172.394,195.656 172.394,191.798C172.394,187.94 175.526,184.807 179.385,184.807Z" style="fill:rgb(255,222,3);"/>
    </g>
</svg>
